<svg xmlns="http://www.w3.org/2000/svg" version="1.1" xmlns:xlink="http://www.w3.org/1999/xlink" xmlns:svgjs="http://svgjs.dev/svgjs" width="2000" height="1500" viewBox="0 0 2000 1500"><rect width="1000" height="1500" fill="#ffffff"></rect><g transform="matrix(0.75,0,0,0.75,249.090909090909,282.7536437246963)"><svg viewBox="0 0 396 247" data-background-color="#ffffff" preserveAspectRatio="xMidYMid meet" height="1247" width="2000" xmlns="http://www.w3.org/2000/svg" xmlns:xlink="http://www.w3.org/1999/xlink"><g id="tight-bounds" transform="matrix(1,0,0,1,0.2400000000000091,-0.09999999999999432)"><svg viewBox="0 0 395.52 247.2" height="247.2" width="395.52"><g><svg></svg></g><g><svg viewBox="0 0 395.52 247.2" height="247.2" width="395.52"><g transform="matrix(1,0,0,1,75.54432,87.17078497552029)"><svg viewBox="0 0 244.43135999999998 72.85843004895939" height="72.85843004895939" width="244.43135999999998"><g><svg viewBox="0 0 244.43135999999998 72.85843004895939" height="72.85843004895939" width="244.43135999999998"><g><svg viewBox="0 0 244.43135999999998 72.85843004895939" height="72.85843004895939" width="244.43135999999998"><g transform="matrix(1,0,0,1,0,45.02943270550588)"><svg viewBox="0 0 244.43135999999998 27.82899734345351" height="27.82899734345351" width="244.43135999999998"><g id="textblocktransform"><svg viewBox="0 0 244.43135999999998 27.82899734345351" height="27.82899734345351" width="244.43135999999998" id="textblock"><g><svg viewBox="0 0 244.43135999999998 27.82899734345351" height="27.82899734345351" width="244.43135999999998"><g transform="matrix(1,0,0,1,0,0)"><svg width="244.43135999999998" viewBox="0.49 -34.35 308.77 35.160000000000004" height="27.82899734345351" data-palette-color="#4790fc"><path d="M46.04-33.54L46.04-31.4 42.99-30.81 35.35 0.81 31.69 0.81 23.34-26.9 15.16 0.81 11.55 0.81 3.39-30.81 0.49-31.4 0.49-33.54 11.94-33.54 11.94-31.4 8.96-31.1Q8.4-31.03 8.4-30.37L8.4-30.37Q8.4-30.3 8.45-30.1L8.45-30.1 14.4-7.54 22.24-33.54 26.1-33.54 34.16-6.74 39.7-30.1Q39.72-30.15 39.72-30.27L39.72-30.27Q39.72-31.03 38.99-31.1L38.99-31.1 35.84-31.4 35.84-33.54 46.04-33.54ZM80-2.15L80 0 68.11 0 68.11-2.15 70.99-2.39Q71.19-2.39 71.36-2.65 71.53-2.91 71.53-3.13L71.53-3.13Q71.53-3.22 71.51-3.25L71.51-3.25 68.06-12.4 56.52-12.4 53.2-3.39Q53.17-3.34 53.17-3.25L53.17-3.25Q53.17-2.95 53.43-2.67 53.68-2.39 53.9-2.39L53.9-2.39 56.86-2.15 56.86 0 46.8 0 46.8-2.15 49.7-2.76 61.35-34.35 65.11-34.35 76.71-3.49Q76.9-2.98 77.05-2.81 77.19-2.64 77.76-2.54L77.76-2.54 80-2.15ZM57.39-14.79L67.16-14.79 62.25-27.91 57.39-14.79ZM114.84-33.54L114.84-31.4 112.06-31.2Q111.52-31.18 111.26-30.82 111.01-30.47 111.01-30.1L111.01-30.1 111.01 0 107.1 0 88.5-28 88.5-3.44Q88.5-3.08 88.75-2.73 89.01-2.39 89.55-2.34L89.55-2.34 92.4-2.15 92.4 0 81.59 0 81.59-2.15 84.44-2.34Q84.98-2.39 85.26-2.73 85.54-3.08 85.54-3.44L85.54-3.44 85.54-30.1Q85.54-30.47 85.26-30.82 84.98-31.18 84.44-31.2L84.44-31.2 81.49-31.4 81.49-33.54 91.4-33.54 91.4-32.3 108.05-7.15 108.05-30.1Q108.05-30.47 107.78-30.82 107.51-31.18 107-31.2L107-31.2 104.15-31.4 104.15-33.54 114.84-33.54ZM149.16-16.85L149.16-16.85Q149.16-13.57 148.21-10.55 147.26-7.52 145.2-5.14 143.13-2.76 139.82-1.38 136.52 0 131.8 0L131.8 0 117.91 0 117.91-2.15 120.55-2.34Q121.09-2.39 121.37-2.73 121.65-3.08 121.65-3.44L121.65-3.44 121.65-30.1Q121.65-30.47 121.37-30.82 121.09-31.18 120.55-31.2L120.55-31.2 117.91-31.4 117.91-33.54 130.8-33.54Q136.05-33.54 140.2-31.77 144.35-30 146.76-26.32 149.16-22.63 149.16-16.85ZM143.5-16.75L143.5-16.75Q143.5-22 141.9-25.16 140.3-28.32 137.38-29.74 134.47-31.15 130.51-31.15L130.51-31.15 126.7-31.15 126.7-2.39 130.75-2.44Q134.61-2.49 137.47-3.92 140.32-5.35 141.91-8.47 143.5-11.6 143.5-16.75ZM178.63-8.35L178.63 0 152.7 0 152.7-2.15 155.29-2.34Q155.82-2.39 156.11-2.73 156.39-3.08 156.39-3.44L156.39-3.44 156.39-30.1Q156.39-30.47 156.11-30.82 155.82-31.18 155.29-31.2L155.29-31.2 152.7-31.4 152.7-33.54 176.99-33.54 176.99-26.1 173.99-26.1 173.23-30.2Q173.21-30.57 172.94-30.86 172.67-31.15 172.33-31.15L172.33-31.15 161.49-31.15 161.49-18.7 168.98-18.7Q169.33-18.7 169.61-18.99 169.89-19.29 169.89-19.56L169.89-19.56 170.4-23 172.94-23 172.94-11.84 170.4-11.84 169.89-15.31Q169.89-15.58 169.59-15.89 169.3-16.21 168.98-16.21L168.98-16.21 161.49-16.21 161.49-2.44 174.14-2.44Q174.45-2.44 174.73-2.8 175.01-3.15 175.04-3.39L175.04-3.39 175.94-8.35 178.63-8.35ZM212.68-2.1L212.68 0.15Q212.37 0.17 211.44 0.49 210.51 0.81 209.39 0.81L209.39 0.81Q206.82 0.81 205.32-0.05 203.82-0.9 203-2.31 202.18-3.71 201.71-5.4 201.23-7.08 200.74-8.75 200.26-10.42 199.4-11.83 198.55-13.23 197.01-14.09 195.47-14.94 192.83-14.94L192.83-14.94Q192.05-14.94 191.36-14.89 190.66-14.84 190.59-14.84L190.59-14.84 190.59-3.44Q190.59-3.08 190.84-2.73 191.1-2.39 191.64-2.34L191.64-2.34 194.27-2.15 194.27 0 181.85 0 181.85-2.15 184.44-2.34Q184.97-2.39 185.25-2.73 185.53-3.08 185.53-3.44L185.53-3.44 185.53-30.1Q185.53-30.47 185.25-30.82 184.97-31.18 184.44-31.2L184.44-31.2 181.85-31.4 181.85-33.54 194.88-33.54Q200.57-33.54 203.86-31.58 207.14-29.61 207.14-24.66L207.14-24.66Q207.14-22.05 205.97-20.37 204.8-18.7 202.93-17.75 201.06-16.8 198.94-16.31L198.94-16.31Q201.26-15.75 202.56-14.71 203.87-13.67 204.5-12.35 205.14-11.04 205.46-9.62 205.77-8.2 206.09-6.86 206.41-5.52 207.06-4.44 207.7-3.37 209.02-2.73 210.34-2.1 212.68-2.1L212.68-2.1ZM201.7-24.44L201.7-24.44Q201.7-27.64 199.66-29.37 197.62-31.1 192.88-31.1L192.88-31.1 190.59-31.1 190.59-17.41Q190.71-17.41 191.6-17.38 192.49-17.36 193.08-17.36L193.08-17.36Q197.25-17.36 199.47-18.9 201.7-20.43 201.7-24.44ZM238.34-9.3L238.34 0 214.02 0 214.02-2.15 216.93-2.34Q217.47-2.39 217.72-2.73 217.98-3.08 217.98-3.44L217.98-3.44 217.98-30.1Q217.98-30.47 217.72-30.82 217.47-31.18 216.93-31.2L216.93-31.2 214.02-31.4 214.02-33.54 226.79-33.54 226.79-31.4 224.13-31.2Q223.59-31.18 223.31-30.82 223.03-30.47 223.03-30.1L223.03-30.1 223.03-2.44 233.53-2.44Q233.87-2.44 234.24-2.71 234.6-2.98 234.63-3.3L234.63-3.3 235.43-9.3 238.34-9.3ZM273.81-16.75L273.81-16.75Q273.81-13.11 272.65-9.94 271.49-6.76 269.34-4.35 267.19-1.93 264.19-0.56 261.19 0.81 257.53 0.81L257.53 0.81Q252.62 0.81 248.94-1.5 245.27-3.81 243.22-7.79 241.17-11.77 241.17-16.8L241.17-16.8Q241.17-20.46 242.3-23.63 243.44-26.81 245.59-29.22 247.74-31.64 250.74-33 253.74-34.35 257.48-34.35L257.48-34.35Q261.19-34.35 264.19-32.98 267.19-31.62 269.34-29.19 271.49-26.76 272.65-23.57 273.81-20.39 273.81-16.75ZM268.02-16.7L268.02-16.7Q268.02-20.78 266.85-24.13 265.68-27.49 263.35-29.49 261.02-31.49 257.53-31.49L257.53-31.49Q253.91-31.49 251.56-29.48 249.2-27.47 248.05-24.12 246.91-20.78 246.91-16.8L246.91-16.8Q246.91-12.79 248.05-9.41 249.2-6.03 251.53-3.99 253.86-1.95 257.4-1.95L257.4-1.95Q261.02-1.95 263.36-3.99 265.71-6.03 266.86-9.39 268.02-12.74 268.02-16.7ZM309.26-16.21L309.26-14.04 306.72-13.79Q306.18-13.77 305.92-13.45 305.67-13.13 305.67-12.74L305.67-12.74 305.67-1.2Q305.67-1.2 304.17-0.7 302.67-0.2 300.27 0.31 297.88 0.81 295.17 0.81L295.17 0.81Q291 0.81 287.75-0.63 284.5-2.08 282.27-4.55 280.03-7.03 278.87-10.21 277.71-13.38 277.71-16.85L277.71-16.85Q277.71-22.09 279.9-26.04 282.08-29.98 286.15-32.17 290.21-34.35 295.81-34.35L295.81-34.35Q298.37-34.35 300.54-33.89 302.71-33.42 304.79-32.86L304.79-32.86 305.62-32.64 305.62-24.56 302.62-24.56 301.81-29.05Q301.74-29.49 301.44-29.8 301.15-30.1 300.81-30.25L300.81-30.25Q300.71-30.27 300.52-30.37L300.52-30.37Q299.76-30.71 298.48-31.13 297.2-31.54 295.61-31.54L295.61-31.54Q292.02-31.54 289.26-29.87 286.5-28.2 284.95-24.98 283.4-21.75 283.4-17.09L283.4-17.09Q283.4-9.89 286.88-5.94 290.36-2 296.22-2L296.22-2Q297.88-2 299.16-2.38 300.44-2.76 300.61-2.76L300.61-2.76 300.61-12.74Q300.61-13.13 300.36-13.45 300.1-13.77 299.56-13.79L299.56-13.79 296.22-14.04 296.22-16.21 309.26-16.21Z" opacity="1" transform="matrix(1,0,0,1,0,0)" fill="#4790fc" class="wordmark-text-0" data-fill-palette-color="primary" id="text-0"></path></svg></g></svg></g></svg></g></svg></g><g transform="matrix(1,0,0,1,102.97381667109305,0)"><svg viewBox="0 0 38.48372665781389 38.45967432865275" height="38.45967432865275" width="38.48372665781389"><g><svg xmlns="http://www.w3.org/2000/svg" xmlns:xlink="http://www.w3.org/1999/xlink" version="1.1" x="0" y="0" viewBox="0 0 100 99.9375" xml:space="preserve" height="38.45967432865275" width="38.48372665781389" class="icon-icon-0" data-fill-palette-color="accent" id="icon-0"></svg></g></svg></g><g></g></svg></g></svg></g></svg></g><g><path d="M83.358 80.601A122.216 122.216 0 0 1 312.162 80.601L309.652 80.601A119.706 119.706 0 0 0 85.868 80.601L83.358 80.601M83.358 166.599A122.216 122.216 0 0 0 312.162 166.599L309.652 166.599A119.706 119.706 0 0 1 85.868 166.599L83.358 166.599" fill="#4790fc" stroke="transparent" data-fill-palette-color="tertiary"></path></g></svg></g><defs></defs><mask id="cf593280-a9f1-4a64-9d88-f42396b8c3db"><g id="SvgjsG1102"><svg viewBox="0 0 395.52 247.2" height="247.2" width="395.52"><g><svg></svg></g><g><svg viewBox="0 0 395.52 247.2" height="247.2" width="395.52"><g transform="matrix(1,0,0,1,75.54432,87.17078497552029)"><svg viewBox="0 0 244.43135999999998 72.85843004895939" height="72.85843004895939" width="244.43135999999998"><g><svg viewBox="0 0 244.43135999999998 72.85843004895939" height="72.85843004895939" width="244.43135999999998"><g><svg viewBox="0 0 244.43135999999998 72.85843004895939" height="72.85843004895939" width="244.43135999999998"><g transform="matrix(1,0,0,1,0,45.02943270550588)"><svg viewBox="0 0 244.43135999999998 27.82899734345351" height="27.82899734345351" width="244.43135999999998"><g id="SvgjsG1101"><svg viewBox="0 0 244.43135999999998 27.82899734345351" height="27.82899734345351" width="244.43135999999998" id="SvgjsSvg1100"><g><svg viewBox="0 0 244.43135999999998 27.82899734345351" height="27.82899734345351" width="244.43135999999998"><g transform="matrix(1,0,0,1,0,0)"><svg width="244.43135999999998" viewBox="0.49 -34.35 308.77 35.160000000000004" height="27.82899734345351" data-palette-color="#4790fc"><path d="M46.04-33.54L46.04-31.4 42.99-30.81 35.35 0.81 31.69 0.81 23.34-26.9 15.16 0.81 11.55 0.81 3.39-30.81 0.49-31.4 0.49-33.54 11.94-33.54 11.94-31.4 8.96-31.1Q8.4-31.03 8.4-30.37L8.4-30.37Q8.4-30.3 8.45-30.1L8.45-30.1 14.4-7.54 22.24-33.54 26.1-33.54 34.16-6.74 39.7-30.1Q39.72-30.15 39.72-30.27L39.72-30.27Q39.72-31.03 38.99-31.1L38.99-31.1 35.84-31.4 35.84-33.54 46.04-33.54ZM80-2.15L80 0 68.11 0 68.11-2.15 70.99-2.39Q71.19-2.39 71.36-2.65 71.53-2.91 71.53-3.13L71.53-3.13Q71.53-3.22 71.51-3.25L71.51-3.25 68.06-12.4 56.52-12.4 53.2-3.39Q53.17-3.34 53.17-3.25L53.17-3.25Q53.17-2.95 53.43-2.67 53.68-2.39 53.9-2.39L53.9-2.39 56.86-2.15 56.86 0 46.8 0 46.8-2.15 49.7-2.76 61.35-34.35 65.11-34.35 76.71-3.49Q76.9-2.98 77.05-2.81 77.19-2.64 77.76-2.54L77.76-2.54 80-2.15ZM57.39-14.79L67.16-14.79 62.25-27.91 57.39-14.79ZM114.84-33.54L114.84-31.4 112.06-31.2Q111.52-31.18 111.26-30.82 111.01-30.47 111.01-30.1L111.01-30.1 111.01 0 107.1 0 88.5-28 88.5-3.44Q88.5-3.08 88.75-2.73 89.01-2.39 89.55-2.34L89.55-2.34 92.4-2.15 92.4 0 81.59 0 81.59-2.15 84.44-2.34Q84.98-2.39 85.26-2.73 85.54-3.08 85.54-3.44L85.54-3.44 85.54-30.1Q85.54-30.47 85.26-30.82 84.98-31.18 84.44-31.2L84.44-31.2 81.49-31.4 81.49-33.54 91.4-33.54 91.4-32.3 108.05-7.15 108.05-30.1Q108.05-30.47 107.78-30.82 107.51-31.18 107-31.2L107-31.2 104.15-31.4 104.15-33.54 114.84-33.54ZM149.16-16.85L149.16-16.85Q149.16-13.57 148.21-10.55 147.26-7.52 145.2-5.14 143.13-2.76 139.82-1.38 136.52 0 131.8 0L131.8 0 117.91 0 117.91-2.15 120.55-2.34Q121.09-2.39 121.37-2.73 121.65-3.08 121.65-3.44L121.65-3.44 121.65-30.1Q121.65-30.47 121.37-30.82 121.09-31.18 120.55-31.2L120.55-31.2 117.91-31.4 117.91-33.54 130.8-33.54Q136.05-33.54 140.2-31.77 144.35-30 146.76-26.32 149.16-22.63 149.16-16.85ZM143.5-16.75L143.5-16.75Q143.5-22 141.9-25.16 140.3-28.32 137.38-29.74 134.47-31.15 130.51-31.15L130.51-31.15 126.7-31.15 126.7-2.39 130.75-2.44Q134.61-2.49 137.47-3.92 140.32-5.35 141.91-8.47 143.5-11.6 143.5-16.75ZM178.63-8.35L178.63 0 152.7 0 152.7-2.15 155.29-2.34Q155.82-2.39 156.11-2.73 156.39-3.08 156.39-3.44L156.39-3.44 156.39-30.1Q156.39-30.47 156.11-30.82 155.82-31.18 155.29-31.2L155.29-31.2 152.7-31.4 152.7-33.54 176.99-33.54 176.99-26.1 173.99-26.1 173.23-30.2Q173.21-30.57 172.94-30.86 172.67-31.15 172.33-31.15L172.33-31.15 161.49-31.15 161.49-18.7 168.98-18.7Q169.33-18.7 169.61-18.99 169.89-19.29 169.89-19.56L169.89-19.56 170.4-23 172.94-23 172.94-11.84 170.4-11.84 169.89-15.31Q169.89-15.58 169.59-15.89 169.3-16.21 168.98-16.21L168.98-16.21 161.49-16.21 161.49-2.44 174.14-2.44Q174.45-2.44 174.73-2.8 175.01-3.15 175.04-3.39L175.04-3.39 175.94-8.35 178.63-8.35ZM212.68-2.1L212.68 0.15Q212.37 0.17 211.44 0.49 210.51 0.81 209.39 0.81L209.39 0.81Q206.82 0.81 205.32-0.05 203.82-0.9 203-2.31 202.18-3.71 201.71-5.4 201.23-7.08 200.74-8.75 200.26-10.42 199.4-11.83 198.55-13.23 197.01-14.09 195.47-14.94 192.83-14.94L192.83-14.94Q192.05-14.94 191.36-14.89 190.66-14.84 190.59-14.84L190.59-14.84 190.59-3.44Q190.59-3.08 190.84-2.73 191.1-2.39 191.64-2.34L191.64-2.34 194.27-2.15 194.27 0 181.85 0 181.85-2.15 184.44-2.34Q184.97-2.39 185.25-2.73 185.53-3.08 185.53-3.44L185.53-3.44 185.53-30.1Q185.53-30.47 185.25-30.82 184.97-31.18 184.44-31.2L184.44-31.2 181.85-31.4 181.85-33.54 194.88-33.54Q200.57-33.54 203.86-31.58 207.14-29.61 207.14-24.66L207.14-24.66Q207.14-22.05 205.97-20.37 204.8-18.7 202.93-17.75 201.06-16.8 198.94-16.31L198.94-16.31Q201.26-15.75 202.56-14.71 203.87-13.67 204.5-12.35 205.14-11.04 205.46-9.62 205.77-8.2 206.09-6.86 206.41-5.52 207.06-4.44 207.7-3.37 209.02-2.73 210.34-2.1 212.68-2.1L212.68-2.1ZM201.7-24.44L201.7-24.44Q201.7-27.64 199.66-29.37 197.62-31.1 192.88-31.1L192.88-31.1 190.59-31.1 190.59-17.41Q190.71-17.41 191.6-17.38 192.49-17.36 193.08-17.36L193.08-17.36Q197.25-17.36 199.47-18.9 201.7-20.43 201.7-24.44ZM238.34-9.3L238.34 0 214.02 0 214.02-2.15 216.93-2.34Q217.47-2.39 217.72-2.73 217.98-3.08 217.98-3.44L217.98-3.44 217.98-30.1Q217.98-30.47 217.72-30.82 217.47-31.18 216.93-31.2L216.93-31.2 214.02-31.4 214.02-33.54 226.79-33.54 226.79-31.4 224.13-31.2Q223.59-31.18 223.31-30.82 223.03-30.47 223.03-30.1L223.03-30.1 223.03-2.44 233.53-2.44Q233.87-2.44 234.24-2.71 234.6-2.98 234.63-3.3L234.63-3.3 235.43-9.3 238.34-9.3ZM273.81-16.75L273.81-16.75Q273.81-13.11 272.65-9.94 271.49-6.76 269.34-4.35 267.19-1.93 264.19-0.56 261.19 0.81 257.53 0.81L257.53 0.81Q252.62 0.81 248.94-1.5 245.27-3.81 243.22-7.79 241.17-11.77 241.17-16.8L241.17-16.8Q241.17-20.46 242.3-23.63 243.44-26.81 245.59-29.22 247.74-31.64 250.74-33 253.74-34.35 257.48-34.35L257.48-34.35Q261.19-34.35 264.19-32.98 267.19-31.62 269.34-29.19 271.49-26.76 272.65-23.57 273.81-20.39 273.81-16.75ZM268.02-16.7L268.02-16.7Q268.02-20.78 266.85-24.13 265.68-27.49 263.35-29.49 261.02-31.49 257.53-31.49L257.53-31.49Q253.91-31.49 251.56-29.48 249.2-27.47 248.05-24.12 246.91-20.78 246.91-16.8L246.91-16.8Q246.91-12.79 248.05-9.41 249.2-6.03 251.53-3.99 253.86-1.95 257.4-1.95L257.4-1.95Q261.02-1.95 263.36-3.99 265.71-6.03 266.86-9.39 268.02-12.74 268.02-16.7ZM309.26-16.21L309.26-14.04 306.72-13.79Q306.18-13.77 305.92-13.45 305.67-13.13 305.67-12.74L305.67-12.74 305.67-1.2Q305.67-1.2 304.17-0.7 302.67-0.2 300.27 0.31 297.88 0.81 295.17 0.81L295.17 0.81Q291 0.81 287.75-0.63 284.5-2.08 282.27-4.55 280.03-7.03 278.87-10.21 277.71-13.38 277.71-16.85L277.71-16.85Q277.71-22.09 279.9-26.04 282.08-29.98 286.15-32.17 290.21-34.35 295.81-34.35L295.81-34.35Q298.37-34.35 300.54-33.89 302.71-33.42 304.79-32.86L304.79-32.86 305.62-32.64 305.62-24.56 302.62-24.56 301.81-29.05Q301.74-29.49 301.44-29.8 301.15-30.1 300.81-30.25L300.81-30.25Q300.71-30.27 300.52-30.37L300.52-30.37Q299.76-30.71 298.48-31.13 297.2-31.54 295.61-31.54L295.61-31.54Q292.02-31.54 289.26-29.87 286.5-28.2 284.95-24.98 283.4-21.75 283.4-17.09L283.4-17.09Q283.4-9.89 286.88-5.94 290.36-2 296.22-2L296.22-2Q297.88-2 299.16-2.38 300.44-2.76 300.61-2.76L300.61-2.76 300.61-12.74Q300.61-13.13 300.36-13.45 300.1-13.77 299.56-13.79L299.56-13.79 296.22-14.04 296.22-16.21 309.26-16.21Z" opacity="1" transform="matrix(1,0,0,1,0,0)" fill="black" class="wordmark-text-0" id="SvgjsPath1099"></path></svg></g></svg></g></svg></g></svg></g><g transform="matrix(1,0,0,1,102.97381667109305,0)"><svg viewBox="0 0 38.48372665781389 38.45967432865275" height="38.45967432865275" width="38.48372665781389"><g><svg xmlns="http://www.w3.org/2000/svg" xmlns:xlink="http://www.w3.org/1999/xlink" version="1.1" x="0" y="0" viewBox="0 0 100 99.9375" xml:space="preserve" height="38.45967432865275" width="38.48372665781389" class="icon-icon-0" data-fill-palette-color="accent" id="SvgjsSvg1098"><path d="M100 0C93.933 0 86.238 3.957 78.938 9.188L63.813 24.219 45.094 22.469 47.125 20.438C47.404 20.158 47.404 19.717 47.125 19.438L45.281 17.594C45.002 17.314 44.561 17.314 44.281 17.594L39.906 21.969 30.313 21.063 32.5 18.875C32.779 18.595 32.779 18.123 32.5 17.844L30.656 16.031C30.377 15.752 29.936 15.752 29.656 16.031L25.094 20.594 9.281 19.125 4.281 24.469 21.344 29.781 36.25 35.281 46.344 41.625 32.156 55.719C27.362 62.053 23.458 68.141 20.469 73.188L2.281 71.781 0 74.063 15.188 82.719C14.283 84.487 13.781 85.531 13.781 85.531 13.781 85.531 14.834 85.058 16.594 84.188L24.938 99.938 27.063 97.813 26.25 78.969C31.32 76.024 37.42 72.178 43.781 67.375L57.906 53.219 63.875 62.563 69.531 77.125 75.25 95.344 80.438 90.219 78.781 72.219 82.313 68.688C82.591 68.408 82.591 67.936 82.313 67.656L80.469 65.844C80.188 65.564 79.747 65.564 79.469 65.844L78.281 67.031 77.656 60.281 82.313 55.625C82.591 55.346 82.591 54.903 82.313 54.625L80.469 52.781C80.188 52.502 79.747 52.502 79.469 52.781L77.156 55.094 75.375 35.781 90.844 20.281C96.054 13.174 100 5.733 100 0z" fill="white"></path></svg></g></svg></g><g></g></svg></g></svg></g></svg></g><g><path d="M83.358 80.601A122.216 122.216 0 0 1 312.162 80.601L309.652 80.601A119.706 119.706 0 0 0 85.868 80.601L83.358 80.601M83.358 166.599A122.216 122.216 0 0 0 312.162 166.599L309.652 166.599A119.706 119.706 0 0 1 85.868 166.599L83.358 166.599" fill="black" stroke="transparent"></path></g></svg></g><defs><mask></mask></defs></svg><rect width="395.52" height="247.2" fill="black" stroke="none" visibility="hidden"></rect></g></mask><linearGradient x1="0" x2="1" y1="0.578" y2="0.595" id="d26fb62c-e4a1-4839-a84a-530c97a8543b"><stop stop-color="#6ee2f5" offset="0"></stop><stop stop-color="#6454f0" offset="1"></stop></linearGradient><rect width="395.52" height="247.2" fill="url(#d26fb62c-e4a1-4839-a84a-530c97a8543b)" mask="url(#cf593280-a9f1-4a64-9d88-f42396b8c3db)" data-fill-palette-color="accent"></rect></svg><rect width="395.52" height="247.2" fill="none" stroke="none" visibility="hidden"></rect></g></svg></g></svg>